<mxfile host="app.diagrams.net" modified="2023-02-09T17:11:42.015Z" agent="5.0 (Macintosh; Intel Mac OS X 10_15_7) AppleWebKit/537.36 (KHTML, like Gecko) Chrome/109.0.0.0 Safari/537.36" etag="du3lH1S7KfIso6slMSPp" version="20.8.19" type="github">
  <diagram name="Page-1" id="74e2e168-ea6b-b213-b513-2b3c1d86103e">
    <mxGraphModel dx="1405" dy="1032" grid="1" gridSize="10" guides="1" tooltips="1" connect="1" arrows="1" fold="1" page="1" pageScale="1" pageWidth="1100" pageHeight="850" background="none" math="0" shadow="0">
      <root>
        <mxCell id="0" />
        <mxCell id="1" parent="0" />
        <mxCell id="77e6c97f196da883-1" value="FitSize Sequence Diagram" style="swimlane;html=1;childLayout=stackLayout;startSize=20;rounded=0;shadow=0;labelBackgroundColor=none;strokeWidth=1;fontFamily=Verdana;fontSize=8;align=center;" parent="1" vertex="1">
          <mxGeometry x="70" y="40" width="960" height="590" as="geometry" />
        </mxCell>
        <mxCell id="77e6c97f196da883-2" value="Appareil Photo (Client)" style="swimlane;html=1;startSize=20;" parent="77e6c97f196da883-1" vertex="1">
          <mxGeometry y="20" width="160" height="570" as="geometry" />
        </mxCell>
        <mxCell id="W96VLVqrp2B3fpbNeX9s-1" style="edgeStyle=orthogonalEdgeStyle;rounded=0;orthogonalLoop=1;jettySize=auto;html=1;exitX=0.5;exitY=1;exitDx=0;exitDy=0;entryX=0.5;entryY=0;entryDx=0;entryDy=0;" edge="1" parent="77e6c97f196da883-2" source="77e6c97f196da883-8" target="77e6c97f196da883-9">
          <mxGeometry relative="1" as="geometry" />
        </mxCell>
        <mxCell id="77e6c97f196da883-8" value="Sélection type de vêtement" style="rounded=1;whiteSpace=wrap;html=1;shadow=0;labelBackgroundColor=none;strokeWidth=1;fontFamily=Verdana;fontSize=8;align=center;" parent="77e6c97f196da883-2" vertex="1">
          <mxGeometry x="30" y="60" width="100" height="60" as="geometry" />
        </mxCell>
        <mxCell id="W96VLVqrp2B3fpbNeX9s-10" style="edgeStyle=orthogonalEdgeStyle;rounded=0;orthogonalLoop=1;jettySize=auto;html=1;exitX=0.5;exitY=1;exitDx=0;exitDy=0;entryX=0.5;entryY=0;entryDx=0;entryDy=0;" edge="1" parent="77e6c97f196da883-2" source="77e6c97f196da883-9" target="W96VLVqrp2B3fpbNeX9s-9">
          <mxGeometry relative="1" as="geometry" />
        </mxCell>
        <mxCell id="77e6c97f196da883-9" value="Prise de la photo" style="rounded=1;whiteSpace=wrap;html=1;shadow=0;labelBackgroundColor=none;strokeWidth=1;fontFamily=Verdana;fontSize=8;align=center;" parent="77e6c97f196da883-2" vertex="1">
          <mxGeometry x="30" y="150" width="100" height="60" as="geometry" />
        </mxCell>
        <mxCell id="W96VLVqrp2B3fpbNeX9s-15" style="edgeStyle=orthogonalEdgeStyle;rounded=0;orthogonalLoop=1;jettySize=auto;html=1;exitX=0.5;exitY=1;exitDx=0;exitDy=0;entryX=0.5;entryY=0;entryDx=0;entryDy=0;" edge="1" parent="77e6c97f196da883-2" source="W96VLVqrp2B3fpbNeX9s-9" target="W96VLVqrp2B3fpbNeX9s-14">
          <mxGeometry relative="1" as="geometry" />
        </mxCell>
        <mxCell id="W96VLVqrp2B3fpbNeX9s-9" value="Saisie des informations du vêtement" style="rounded=1;whiteSpace=wrap;html=1;shadow=0;labelBackgroundColor=none;strokeWidth=1;fontFamily=Verdana;fontSize=8;align=center;" vertex="1" parent="77e6c97f196da883-2">
          <mxGeometry x="30" y="290" width="100" height="60" as="geometry" />
        </mxCell>
        <mxCell id="W96VLVqrp2B3fpbNeX9s-14" value="Récapitulatif" style="rounded=1;whiteSpace=wrap;html=1;shadow=0;labelBackgroundColor=none;strokeWidth=1;fontFamily=Verdana;fontSize=8;align=center;" vertex="1" parent="77e6c97f196da883-2">
          <mxGeometry x="30" y="390" width="100" height="60" as="geometry" />
        </mxCell>
        <mxCell id="77e6c97f196da883-3" value="Catalogue (Client)" style="swimlane;html=1;startSize=20;" parent="77e6c97f196da883-1" vertex="1">
          <mxGeometry x="160" y="20" width="160" height="570" as="geometry" />
        </mxCell>
        <mxCell id="W96VLVqrp2B3fpbNeX9s-18" value="Enregistrement du vêtement" style="rounded=1;whiteSpace=wrap;html=1;shadow=0;labelBackgroundColor=none;strokeWidth=1;fontFamily=Verdana;fontSize=8;align=center;" vertex="1" parent="77e6c97f196da883-3">
          <mxGeometry x="30" y="450" width="100" height="60" as="geometry" />
        </mxCell>
        <mxCell id="77e6c97f196da883-4" value="keypoints API (Serveur)" style="swimlane;html=1;startSize=20;" parent="77e6c97f196da883-1" vertex="1">
          <mxGeometry x="320" y="20" width="160" height="570" as="geometry" />
        </mxCell>
        <mxCell id="W96VLVqrp2B3fpbNeX9s-12" style="edgeStyle=orthogonalEdgeStyle;rounded=0;orthogonalLoop=1;jettySize=auto;html=1;exitX=0.5;exitY=1;exitDx=0;exitDy=0;entryX=0.5;entryY=0;entryDx=0;entryDy=0;dashed=1;" edge="1" parent="77e6c97f196da883-4" source="W96VLVqrp2B3fpbNeX9s-2" target="W96VLVqrp2B3fpbNeX9s-11">
          <mxGeometry relative="1" as="geometry" />
        </mxCell>
        <mxCell id="W96VLVqrp2B3fpbNeX9s-2" value="Traitement de la requête" style="rounded=1;whiteSpace=wrap;html=1;shadow=0;labelBackgroundColor=none;strokeWidth=1;fontFamily=Verdana;fontSize=8;align=center;" vertex="1" parent="77e6c97f196da883-4">
          <mxGeometry x="30" y="210" width="100" height="60" as="geometry" />
        </mxCell>
        <mxCell id="W96VLVqrp2B3fpbNeX9s-11" value="Traitement de la requête" style="rounded=1;whiteSpace=wrap;html=1;shadow=0;labelBackgroundColor=none;strokeWidth=1;fontFamily=Verdana;fontSize=8;align=center;" vertex="1" parent="77e6c97f196da883-4">
          <mxGeometry x="30" y="380" width="100" height="60" as="geometry" />
        </mxCell>
        <mxCell id="77e6c97f196da883-5" value="run_no_det.py (Serveur)" style="swimlane;html=1;startSize=20;" parent="77e6c97f196da883-1" vertex="1">
          <mxGeometry x="480" y="20" width="160" height="570" as="geometry" />
        </mxCell>
        <mxCell id="W96VLVqrp2B3fpbNeX9s-7" style="edgeStyle=orthogonalEdgeStyle;rounded=0;orthogonalLoop=1;jettySize=auto;html=1;exitX=0.5;exitY=1;exitDx=0;exitDy=0;dashed=1;" edge="1" parent="77e6c97f196da883-5" source="W96VLVqrp2B3fpbNeX9s-5">
          <mxGeometry relative="1" as="geometry">
            <mxPoint x="80" y="380" as="targetPoint" />
          </mxGeometry>
        </mxCell>
        <mxCell id="W96VLVqrp2B3fpbNeX9s-5" value="Calcul des keypoints" style="rounded=1;whiteSpace=wrap;html=1;shadow=0;labelBackgroundColor=none;strokeWidth=1;fontFamily=Verdana;fontSize=8;align=center;" vertex="1" parent="77e6c97f196da883-5">
          <mxGeometry x="30" y="210" width="100" height="60" as="geometry" />
        </mxCell>
        <mxCell id="W96VLVqrp2B3fpbNeX9s-8" value="Fin du calcul" style="rounded=1;whiteSpace=wrap;html=1;shadow=0;labelBackgroundColor=none;strokeWidth=1;fontFamily=Verdana;fontSize=8;align=center;" vertex="1" parent="77e6c97f196da883-5">
          <mxGeometry x="30" y="380" width="100" height="60" as="geometry" />
        </mxCell>
        <mxCell id="77e6c97f196da883-6" value="Catalogue API (serveur)" style="swimlane;html=1;startSize=20;" parent="77e6c97f196da883-1" vertex="1">
          <mxGeometry x="640" y="20" width="160" height="570" as="geometry" />
        </mxCell>
        <mxCell id="77e6c97f196da883-38" style="edgeStyle=orthogonalEdgeStyle;rounded=1;html=1;labelBackgroundColor=none;startArrow=none;startFill=0;startSize=5;endArrow=classicThin;endFill=1;endSize=5;jettySize=auto;orthogonalLoop=1;strokeWidth=1;fontFamily=Verdana;fontSize=8" parent="77e6c97f196da883-6" target="77e6c97f196da883-22" edge="1">
          <mxGeometry relative="1" as="geometry">
            <mxPoint x="80" y="540" as="sourcePoint" />
          </mxGeometry>
        </mxCell>
        <mxCell id="W96VLVqrp2B3fpbNeX9s-20" value="Enregistrement du vêtement" style="rounded=1;whiteSpace=wrap;html=1;shadow=0;labelBackgroundColor=none;strokeWidth=1;fontFamily=Verdana;fontSize=8;align=center;" vertex="1" parent="77e6c97f196da883-6">
          <mxGeometry x="30" y="470" width="100" height="60" as="geometry" />
        </mxCell>
        <mxCell id="77e6c97f196da883-7" value="Database (serveur)" style="swimlane;html=1;startSize=20;" parent="77e6c97f196da883-1" vertex="1">
          <mxGeometry x="800" y="20" width="160" height="570" as="geometry" />
        </mxCell>
        <mxCell id="W96VLVqrp2B3fpbNeX9s-22" value="Enregistrement du vêtement" style="rounded=1;whiteSpace=wrap;html=1;shadow=0;labelBackgroundColor=none;strokeWidth=1;fontFamily=Verdana;fontSize=8;align=center;" vertex="1" parent="77e6c97f196da883-7">
          <mxGeometry x="30" y="470" width="100" height="60" as="geometry" />
        </mxCell>
        <mxCell id="W96VLVqrp2B3fpbNeX9s-3" style="edgeStyle=orthogonalEdgeStyle;rounded=0;orthogonalLoop=1;jettySize=auto;html=1;exitX=1;exitY=0.75;exitDx=0;exitDy=0;entryX=0;entryY=0.5;entryDx=0;entryDy=0;" edge="1" parent="77e6c97f196da883-1" source="77e6c97f196da883-9" target="W96VLVqrp2B3fpbNeX9s-2">
          <mxGeometry relative="1" as="geometry" />
        </mxCell>
        <mxCell id="W96VLVqrp2B3fpbNeX9s-4" value="Envoi de la photo" style="edgeLabel;html=1;align=center;verticalAlign=middle;resizable=0;points=[];" vertex="1" connectable="0" parent="W96VLVqrp2B3fpbNeX9s-3">
          <mxGeometry x="-0.3326" y="-2" relative="1" as="geometry">
            <mxPoint as="offset" />
          </mxGeometry>
        </mxCell>
        <mxCell id="W96VLVqrp2B3fpbNeX9s-6" style="edgeStyle=orthogonalEdgeStyle;rounded=0;orthogonalLoop=1;jettySize=auto;html=1;exitX=1;exitY=0.5;exitDx=0;exitDy=0;entryX=0;entryY=0.5;entryDx=0;entryDy=0;" edge="1" parent="77e6c97f196da883-1" source="W96VLVqrp2B3fpbNeX9s-2" target="W96VLVqrp2B3fpbNeX9s-5">
          <mxGeometry relative="1" as="geometry" />
        </mxCell>
        <mxCell id="W96VLVqrp2B3fpbNeX9s-13" style="edgeStyle=orthogonalEdgeStyle;rounded=0;orthogonalLoop=1;jettySize=auto;html=1;exitX=0;exitY=0.5;exitDx=0;exitDy=0;entryX=1;entryY=0.5;entryDx=0;entryDy=0;" edge="1" parent="77e6c97f196da883-1" source="W96VLVqrp2B3fpbNeX9s-8" target="W96VLVqrp2B3fpbNeX9s-11">
          <mxGeometry relative="1" as="geometry" />
        </mxCell>
        <mxCell id="W96VLVqrp2B3fpbNeX9s-16" style="edgeStyle=orthogonalEdgeStyle;rounded=0;orthogonalLoop=1;jettySize=auto;html=1;exitX=0;exitY=0.5;exitDx=0;exitDy=0;entryX=1;entryY=0.5;entryDx=0;entryDy=0;" edge="1" parent="77e6c97f196da883-1" source="W96VLVqrp2B3fpbNeX9s-11" target="W96VLVqrp2B3fpbNeX9s-14">
          <mxGeometry relative="1" as="geometry" />
        </mxCell>
        <mxCell id="W96VLVqrp2B3fpbNeX9s-17" value="Réception des dimensions" style="edgeLabel;html=1;align=center;verticalAlign=middle;resizable=0;points=[];" vertex="1" connectable="0" parent="W96VLVqrp2B3fpbNeX9s-16">
          <mxGeometry x="-0.2051" relative="1" as="geometry">
            <mxPoint x="-14" y="10" as="offset" />
          </mxGeometry>
        </mxCell>
        <mxCell id="W96VLVqrp2B3fpbNeX9s-19" style="edgeStyle=orthogonalEdgeStyle;rounded=0;orthogonalLoop=1;jettySize=auto;html=1;exitX=1;exitY=0.75;exitDx=0;exitDy=0;entryX=0;entryY=0.25;entryDx=0;entryDy=0;" edge="1" parent="77e6c97f196da883-1" source="W96VLVqrp2B3fpbNeX9s-14" target="W96VLVqrp2B3fpbNeX9s-18">
          <mxGeometry relative="1" as="geometry">
            <Array as="points">
              <mxPoint x="170" y="455" />
              <mxPoint x="170" y="485" />
            </Array>
          </mxGeometry>
        </mxCell>
        <mxCell id="W96VLVqrp2B3fpbNeX9s-21" style="edgeStyle=orthogonalEdgeStyle;rounded=0;orthogonalLoop=1;jettySize=auto;html=1;exitX=1;exitY=0.5;exitDx=0;exitDy=0;entryX=0;entryY=0.5;entryDx=0;entryDy=0;" edge="1" parent="77e6c97f196da883-1" source="W96VLVqrp2B3fpbNeX9s-18" target="W96VLVqrp2B3fpbNeX9s-20">
          <mxGeometry relative="1" as="geometry">
            <mxPoint x="530" y="520" as="targetPoint" />
            <Array as="points">
              <mxPoint x="540" y="500" />
              <mxPoint x="540" y="520" />
            </Array>
          </mxGeometry>
        </mxCell>
        <mxCell id="W96VLVqrp2B3fpbNeX9s-23" style="edgeStyle=orthogonalEdgeStyle;rounded=0;orthogonalLoop=1;jettySize=auto;html=1;exitX=1;exitY=0.5;exitDx=0;exitDy=0;entryX=0;entryY=0.5;entryDx=0;entryDy=0;" edge="1" parent="77e6c97f196da883-1" source="W96VLVqrp2B3fpbNeX9s-20" target="W96VLVqrp2B3fpbNeX9s-22">
          <mxGeometry relative="1" as="geometry" />
        </mxCell>
      </root>
    </mxGraphModel>
  </diagram>
</mxfile>
